<mxfile host="app.diagrams.net" modified="2020-11-11T11:22:04.931Z" agent="5.0 (X11; Linux x86_64) AppleWebKit/537.36 (KHTML, like Gecko) Chrome/86.0.4240.193 Safari/537.36" etag="6n7jSkrivdVlLqdamN6E" version="13.9.2" type="github">
  <diagram id="ksspDT3pl32W8o3eoOim" name="Page-1">
    <mxGraphModel dx="1422" dy="745" grid="1" gridSize="10" guides="1" tooltips="1" connect="1" arrows="1" fold="1" page="1" pageScale="1" pageWidth="827" pageHeight="1169" math="0" shadow="0">
      <root>
        <mxCell id="0" />
        <mxCell id="1" parent="0" />
        <mxCell id="DyKOs1U5UiyvVCL4km7Z-1" value="&lt;b&gt;&lt;font face=&quot;Times New Roman&quot; color=&quot;#ff6666&quot; style=&quot;font-size: 28px&quot;&gt;READ OPERATION&lt;/font&gt;&lt;/b&gt;" style="text;html=1;align=center;verticalAlign=middle;resizable=0;points=[];autosize=1;" vertex="1" parent="1">
          <mxGeometry x="270" y="180" width="270" height="20" as="geometry" />
        </mxCell>
      </root>
    </mxGraphModel>
  </diagram>
</mxfile>
